<?xml version="1.0" encoding="utf-8"?>
<!-- Generator: Adobe Adobe Illustrator 28.3.0, SVG Export Plug-In . SVG Version: 6.00 Build 0)  -->
<svg version="1.1" xmlns="http://www.w3.org/2000/svg" xmlns:xlink="http://www.w3.org/1999/xlink" x="0px" y="0px"
	 viewBox="0 0 621.32 120.09" style="enable-background:new 0 0 621.32 120.09;" xml:space="preserve">
<style type="text/css">
	.st0{fill:#0B0404;}
	.st1{fill:#881816;}
	.st2{fill:#EB302D;}
</style>
<g id="Layer_1">
	<g>
		<path class="st0" d="M57.39,9.88c6.53,3.52,11.55,8.4,15.07,14.66c3.52,6.25,5.28,13.37,5.28,21.34c0,7.9-1.76,15.01-5.28,21.34
			c-3.52,6.33-8.54,11.31-15.07,14.95c-6.53,3.63-14.13,5.45-22.8,5.45H0V4.6h34.59C43.26,4.6,50.86,6.36,57.39,9.88z M46.19,59.59
			c3.44-3.2,5.16-7.78,5.16-13.72c0-5.94-1.72-10.51-5.16-13.72c-3.44-3.2-8.09-4.81-13.95-4.81h-6.21V64.4h6.21
			C38.1,64.4,42.75,62.79,46.19,59.59z"/>
		<path class="st0" d="M146.21,59.12h-41.86c0.39,5.71,2.77,8.56,7.15,8.56c2.81,0,4.85-1.29,6.1-3.87h27.55
			c-0.94,4.69-2.91,8.89-5.92,12.6c-3.01,3.71-6.8,6.64-11.37,8.79c-4.57,2.15-9.6,3.22-15.07,3.22c-6.57,0-12.41-1.37-17.53-4.1
			c-5.12-2.74-9.11-6.66-11.96-11.78c-2.85-5.12-4.28-11.12-4.28-18c0-6.88,1.43-12.88,4.28-18c2.85-5.12,6.84-9.05,11.96-11.78
			c5.12-2.74,10.96-4.1,17.53-4.1s12.41,1.35,17.53,4.05c5.12,2.7,9.1,6.55,11.96,11.55c2.85,5,4.28,10.9,4.28,17.7
			C146.56,55.76,146.44,57.48,146.21,59.12z M120.18,47.75c0-2.19-0.7-3.85-2.11-4.98c-1.41-1.13-3.17-1.7-5.28-1.7
			c-4.61,0-7.31,2.23-8.09,6.68H120.18z"/>
		<path class="st0" d="M183.72,62.87l10.55-41.39h27.67L199.9,87.61h-32.48l-22.04-66.13h27.67L183.72,62.87z"/>
		<path class="st0" d="M282.91,4.6v20.64h-32.59v11.49h23.45v19.58h-23.45v31.3h-26.03V4.6H282.91z"/>
		<path class="st0" d="M300.62,84.33c-5.32-2.74-9.48-6.66-12.49-11.78c-3.01-5.12-4.51-11.12-4.51-18c0-6.88,1.5-12.88,4.51-18
			c3.01-5.12,7.17-9.05,12.49-11.78c5.31-2.74,11.29-4.1,17.94-4.1c6.64,0,12.62,1.37,17.94,4.1c5.31,2.74,9.48,6.66,12.49,11.78
			c3.01,5.12,4.51,11.12,4.51,18c0,6.88-1.51,12.88-4.51,18c-3.01,5.12-7.17,9.05-12.49,11.78c-5.32,2.74-11.3,4.1-17.94,4.1
			C311.91,88.43,305.93,87.06,300.62,84.33z M324.65,63.05c1.64-1.92,2.46-4.75,2.46-8.5c0-3.75-0.82-6.58-2.46-8.5
			c-1.64-1.91-3.68-2.87-6.1-2.87c-2.42,0-4.46,0.96-6.1,2.87c-1.64,1.92-2.46,4.75-2.46,8.5c0,3.75,0.8,6.59,2.4,8.5
			c1.6,1.92,3.65,2.87,6.15,2.87C320.98,65.92,323.01,64.96,324.65,63.05z"/>
		<path class="st0" d="M392.89,24.47c3.83-2.3,7.82-3.46,11.96-3.46V48.8h-7.39c-4.92,0-8.54,0.86-10.84,2.58
			c-2.31,1.72-3.46,4.77-3.46,9.15v27.08h-26.03V21.48h26.03v12.19C385.81,29.85,389.06,26.78,392.89,24.47z"/>
		<path class="st0" d="M442.25,23.3c3.12,1.76,5.51,4.16,7.15,7.21v-9.03h25.91v64.95c0,6.17-1.13,11.8-3.4,16.88
			c-2.27,5.08-5.92,9.14-10.96,12.19c-5.04,3.05-11.51,4.57-19.4,4.57c-10.63,0-19.05-2.48-25.27-7.45
			c-6.21-4.96-9.75-11.71-10.61-20.22h25.56c0.7,3.44,3.52,5.16,8.44,5.16c3.05,0,5.43-0.78,7.15-2.34c1.72-1.56,2.58-4.5,2.58-8.79
			v-7.86c-1.64,3.05-4.03,5.45-7.15,7.21c-3.13,1.76-6.84,2.64-11.14,2.64c-5.16,0-9.81-1.35-13.95-4.04
			c-4.14-2.7-7.41-6.6-9.79-11.72c-2.38-5.12-3.58-11.16-3.58-18.12c0-6.96,1.19-12.99,3.58-18.11c2.38-5.12,5.65-9.03,9.79-11.72
			c4.14-2.7,8.79-4.05,13.95-4.05C435.41,20.66,439.12,21.54,442.25,23.3z M446.7,46.34c-1.8-1.95-4.1-2.93-6.92-2.93
			c-2.81,0-5.12,0.98-6.92,2.93c-1.8,1.95-2.7,4.69-2.7,8.21c0,3.52,0.9,6.25,2.7,8.21c1.8,1.95,4.1,2.93,6.92,2.93
			c2.81,0,5.12-0.98,6.92-2.93c1.8-1.95,2.7-4.69,2.7-8.21C449.4,51.03,448.5,48.29,446.7,46.34z"/>
		<path class="st0" d="M546.13,59.12h-41.86c0.39,5.71,2.77,8.56,7.15,8.56c2.81,0,4.85-1.29,6.1-3.87h27.55
			c-0.94,4.69-2.91,8.89-5.92,12.6c-3.01,3.71-6.8,6.64-11.37,8.79c-4.57,2.15-9.6,3.22-15.07,3.22c-6.57,0-12.41-1.37-17.53-4.1
			c-5.12-2.74-9.11-6.66-11.96-11.78c-2.85-5.12-4.28-11.12-4.28-18c0-6.88,1.43-12.88,4.28-18c2.85-5.12,6.84-9.05,11.96-11.78
			c5.12-2.74,10.96-4.1,17.53-4.1c6.57,0,12.41,1.35,17.53,4.05c5.12,2.7,9.11,6.55,11.96,11.55c2.85,5,4.28,10.9,4.28,17.7
			C546.48,55.76,546.36,57.48,546.13,59.12z M520.1,47.75c0-2.19-0.7-3.85-2.11-4.98c-1.41-1.13-3.17-1.7-5.28-1.7
			c-4.61,0-7.31,2.23-8.09,6.68H520.1z"/>
	</g>
</g>
<g id="Layer_3">
	<g>
		<path class="st1" d="M566.55,95.26l4.83,12.89c0.39,1.03,1.37,1.71,2.46,1.71s2.08-0.68,2.46-1.71l4.83-12.89l12.89-4.83
			c1.03-0.39,1.71-1.37,1.71-2.46s-0.68-2.08-1.71-2.46l-12.89-4.83l-4.83-12.89c-0.39-1.03-1.37-1.71-2.46-1.71
			s-2.08,0.68-2.46,1.71l-4.83,12.89l-12.89,4.83c-1.03,0.39-1.71,1.37-1.71,2.46s0.68,2.08,1.71,2.46L566.55,95.26z"/>
	</g>
	<g>
		<path class="st2" d="M575.08,46.24l7.66,20.41c0.61,1.63,2.17,2.71,3.9,2.71c1.73,0,3.29-1.08,3.9-2.71l7.66-20.41l20.41-7.66
			c1.63-0.61,2.71-2.17,2.71-3.9c0-1.73-1.08-3.29-2.71-3.9l-20.41-7.66l-7.66-20.41c-0.61-1.63-2.17-2.71-3.9-2.71
			c-1.73,0-3.29,1.08-3.9,2.71l-7.66,20.41l-20.41,7.66c-1.63,0.61-2.71,2.17-2.71,3.9c0,1.73,1.08,3.29,2.71,3.9L575.08,46.24z"/>
	</g>
</g>
</svg>
